<svg xmlns="http://www.w3.org/2000/svg" width="576" height="244" viewBox="0 0 576 244" version="1.1"><path d="M 186.130 15.109 L 176.759 17.076 170.686 19.632 L 164.613 22.188 158.557 26.289 L 152.500 30.390 147.129 35.445 L 141.758 40.500 137.356 46.660 L 132.953 52.819 129.588 60.160 L 126.223 67.500 123.959 76 L 121.694 84.500 121.253 102.071 L 120.812 119.643 122.461 128.444 L 124.110 137.245 127.033 145.253 L 129.955 153.261 134.675 160.880 L 139.395 168.500 145.448 174.897 L 151.500 181.294 158.176 185.648 L 164.852 190.001 172.303 192.985 L 179.754 195.968 185.014 197.096 L 190.274 198.225 206.887 197.743 L 223.500 197.262 232 194.638 L 240.500 192.013 248.850 187.909 L 257.201 183.804 264.637 176.740 L 272.073 169.676 271.787 161.309 L 271.500 152.942 257.965 152.400 L 244.430 151.858 239.400 155.319 L 234.369 158.779 229.157 161.421 L 223.945 164.062 216.986 164.936 L 210.027 165.809 203.404 164.988 L 196.781 164.167 190.443 161.047 L 184.105 157.927 179.914 153.213 L 175.723 148.500 172.355 141.471 L 168.988 134.443 167.511 127.471 L 166.035 120.500 166.017 105.815 L 166 91.131 167.525 83.815 L 169.049 76.500 172.381 69.448 L 175.713 62.396 179.064 58.579 L 182.415 54.763 186.129 52.419 L 189.843 50.074 195.890 48.037 L 201.937 46 210.500 46 L 219.063 46 225.282 48.081 L 231.500 50.163 237.967 53.581 L 244.435 57 257.717 57 L 271 57 271 47.449 L 271 37.898 267.250 34.402 L 263.500 30.906 256.304 26.045 L 249.107 21.184 243.304 18.986 L 237.500 16.789 228.500 14.908 L 219.500 13.026 207.500 13.084 L 195.500 13.142 186.130 15.109 M 376.102 65.464 L 364.704 69.704 362.852 70.860 L 361 72.017 361 76.240 L 361 80.462 369.972 89.481 L 378.944 98.500 379.222 101 L 379.500 103.500 366.500 103.788 L 353.500 104.077 351.296 103.531 L 349.091 102.985 348.796 96.242 L 348.500 89.500 343.750 89.195 L 339 88.890 339 94.863 L 339 100.836 338.393 102.418 L 337.786 104 335.143 103.985 L 332.500 103.969 331.304 103.209 L 330.107 102.448 329.804 95.974 L 329.500 89.500 325 89.500 L 320.500 89.500 320.194 95.465 L 319.887 101.431 318.821 102.715 L 317.755 104 314.413 104 L 311.070 104 310.035 102.066 L 309 100.131 309 94.566 L 309 89 304.500 89 L 300 89 300 94.566 L 300 100.131 298.965 102.066 L 297.930 104 285.665 104 L 273.400 104 272.200 102.800 L 271 101.600 271 81.745 L 271 61.890 266.250 62.195 L 261.500 62.500 261 90.599 L 260.500 118.697 259.073 120.415 L 257.646 122.132 254.872 123.566 L 252.099 125 247.615 125 L 243.130 125 240.661 124.061 L 238.192 123.123 236.096 120.873 L 234 118.623 234 108.311 L 234 98 229 98 L 224 98 224.022 108.750 L 224.044 119.500 225.865 123.509 L 227.686 127.517 231.378 130.759 L 235.070 134 246.285 133.996 L 257.500 133.993 260.710 132.035 L 263.920 130.078 266.385 126.289 L 268.851 122.500 269.897 118.500 L 270.942 114.500 285.391 114.500 L 299.839 114.500 302.419 112.076 L 305 109.651 305 110.800 L 305 111.949 307.950 113.474 L 310.901 115 314.500 115 L 318.099 115 321.050 113.474 L 324 111.949 324 110.885 L 324 109.822 327.077 112.411 L 330.153 115 334.021 115 L 337.888 115 340.694 112.574 L 343.500 110.148 345.828 112.324 L 348.155 114.500 362.761 114.827 L 377.368 115.154 380.633 114.541 L 383.898 113.929 386.585 111.081 L 389.273 108.234 393.715 111.367 L 398.158 114.500 407.634 114.848 L 417.111 115.197 420.076 113.969 L 423.040 112.741 425.520 109.794 L 428 106.847 428 97.923 L 428 89 423.500 89 L 419 89 419 95.300 L 419 101.600 417.800 102.800 L 416.600 104 408.440 104 L 400.279 104 396.390 101.412 L 392.500 98.825 382.250 88.680 L 372 78.536 372 77.893 L 372 77.251 381.250 74.040 L 390.500 70.830 391.288 70.077 L 392.076 69.324 391.410 65.162 L 390.744 61 389.122 61.112 L 387.500 61.224 376.102 65.464 M 422.250 73.733 L 419 75.363 419 76.622 L 419 77.882 420.087 78.554 L 421.174 79.225 425.127 77.443 L 429.081 75.660 428.779 74.091 L 428.477 72.523 426.989 72.313 L 425.500 72.103 422.250 73.733 M 396 155 L 394 157 394 160 L 394 163 396 165 L 398 167 401.500 167 L 405 167 407 165 L 409 163 409 160 L 409 157 407 155 L 405 153 401.500 153 L 398 153 396 155 M 414 155 L 412 157 412 160 L 412 163 414 165 L 416 167 419.500 167 L 423 167 425 165 L 427 163 427 160 L 427 157 425 155 L 423 153 419.500 153 L 416 153 414 155 M 332.250 215.031 L 330 215.936 330 216.663 L 330 217.391 332.687 220.195 L 335.374 223 332.187 223 L 329 223 329 221.500 L 329 220 328 220 L 327 220 327 221.500 L 327 223 326 223 L 325 223 325 221.500 L 325 220 324.070 220 L 323.139 220 322.697 222.250 L 322.254 224.500 321.510 222.250 L 320.767 220 319.947 220 L 319.127 220 318.813 223.250 L 318.500 226.500 316 226.500 L 313.500 226.500 313.184 223.750 L 312.867 221 311.434 221 L 310 221 310 223.800 L 310 226.600 311.200 227.800 L 312.400 229 315.371 229 L 318.343 229 320.139 227.375 L 321.935 225.749 332.217 225.309 L 342.500 224.869 343.750 224.466 L 345 224.063 345 222.031 L 345 220 343.500 220 L 342 220 342 221.500 L 342 223 340.516 223 L 339.032 223 335.819 220.130 L 332.607 217.260 334.803 216.562 L 337 215.865 337 214.933 L 337 214 335.750 214.063 L 334.500 214.127 332.250 215.031 M 364 220 L 364 225 369 225 L 374 225 374 222 L 374 219 371.406 219 L 368.813 219 368.290 221 L 367.767 223 366.883 223 L 366 223 366 219 L 366 215 365 215 L 364 215 364 220 M 375.195 219.750 L 375.500 224.500 383 224.500 L 390.500 224.500 390.820 222.250 L 391.139 220 390.430 220 L 389.720 220 388.392 221.750 L 387.064 223.500 387.032 221.750 L 387 220 386 220 L 385 220 385 221.500 L 385 223 384 223 L 383 223 383 221.500 L 383 220 382.107 220 L 381.214 220 380.638 221.500 L 380.063 223 379.031 223 L 378 223 378 219 L 378 215 376.445 215 L 374.890 215 375.195 219.750 M 287 218 L 287 219 290 219 L 293 219 293 218 L 293 217 290 217 L 287 217 287 218 M 349.847 219.436 L 348.737 221.872 349.324 223.403 L 349.912 224.933 356.206 224.717 L 362.500 224.500 362.820 222.250 L 363.139 220 361.570 220 L 360 220 360 221.500 L 360 223 358.530 223 L 357.060 223 354.842 220 L 352.624 217 351.791 217 L 350.957 217 349.847 219.436 M 358 218 L 358 219 359.500 219 L 361 219 361 218 L 361 217 359.500 217 L 358 217 358 218 M 300.310 220.921 L 299.767 223 298.883 223 L 298 223 298 221.500 L 298 220 296.500 220 L 295 220 295 221.500 L 295 223 293.500 223 L 292 223 292 221.500 L 292 220 291 220 L 290 220 290 221.500 L 290 223 287.969 223 L 285.937 223 285.362 221.500 L 284.786 220 283.893 220 L 283 220 283 221.500 L 283 223 278.500 223 L 274 223 274 224 L 274 225 275.500 225 L 277 225 277 226.070 L 277 227.139 274.750 226.820 L 272.500 226.500 272.180 224.250 L 271.861 222 270.430 222 L 269 222 269 224.300 L 269 226.600 270.200 227.800 L 271.400 229 274.643 229 L 277.887 229 279.265 227.032 L 280.643 225.064 293.072 224.782 L 305.500 224.500 305.500 222 L 305.500 219.500 303.177 219.171 L 300.854 218.842 300.310 220.921 M 256 223.094 L 256 226.187 254 226.710 L 252 227.233 252 228.117 L 252 229 254.443 229 L 256.887 229 258.218 227.099 L 259.550 225.198 262.025 224.849 L 264.500 224.500 264.820 222.250 L 265.139 220 263.570 220 L 262 220 262 221.500 L 262 223 260.500 223 L 259 223 259 221.500 L 259 220 257.500 220 L 256 220 256 223.094 M 260 228 L 260 229 261.500 229 L 263 229 263 228 L 263 227 261.500 227 L 260 227 260 228 M 293 228 L 293 229 294.500 229 L 296 229 296 228 L 296 227 294.500 227 L 293 227 293 228 M 339.393 228.582 L 340 230.164 340 230.582 L 340 231 341.071 231 L 342.143 231 343.524 229.619 L 344.905 228.238 344.286 227.619 L 343.667 227 341.226 227 L 338.786 227 339.393 228.582" stroke="none" fill="#3c4453" fill-rule="evenodd"/><path d="M 225.200 139.200 L 224 140.400 224 143.500 L 224 146.600 225.200 147.800 L 226.400 149 329 149 L 431.600 149 432.800 147.800 L 434 146.600 434 143.500 L 434 140.400 432.800 139.200 L 431.600 138 329 138 L 226.400 138 225.200 139.200 M 377 155 L 375 157 375 160 L 375 163 377 165 L 379 167 382.500 167 L 386 167 388 165 L 390 163 390 160 L 390 157 388 155 L 386 153 382.500 153 L 379 153 377 155 M 222.583 216.643 L 221.953 218.286 222.613 218.893 L 223.274 219.500 223.758 218.137 L 224.242 216.774 225.067 218.108 L 225.891 219.442 226.469 218.864 L 227.047 218.286 226.417 216.643 L 225.786 215 224.500 215 L 223.214 215 222.583 216.643 M 180 218 L 180 219 181.500 219 L 183 219 183 218 L 183 217 181.500 217 L 180 217 180 218 M 241.250 218.360 L 239 219.474 238.932 221.487 L 238.865 223.500 237.757 221.200 L 236.650 218.901 234.075 219.200 L 231.500 219.500 231.180 221.756 L 230.859 224.012 233.180 224.955 L 235.500 225.898 233.250 226.566 L 231 227.233 231 228.117 L 231 229 233.465 229 L 235.930 229 237.054 226.900 L 238.178 224.800 242.596 225.462 L 247.015 226.125 247.595 224.614 L 248.174 223.104 246.372 220.052 L 244.569 217 244.034 217.123 L 243.500 217.246 241.250 218.360 M 165.290 221 L 164.767 223 161.383 223 L 158 223 158 224 L 158 225 159.559 225 L 161.118 225 160.500 226 L 159.882 227 157.960 227 L 156.038 227 155.411 224.500 L 154.783 222 153.892 222 L 153 222 153 224.300 L 153 226.600 154.200 227.800 L 155.400 229 158.794 229 L 162.187 229 162.710 227 L 163.233 225 167.617 225 L 172 225 172 224 L 172 223 170 223 L 168 223 168 222 L 168 221 169.500 221 L 171 221 171 220 L 171 219 168.406 219 L 165.813 219 165.290 221 M 173.667 219.667 L 173 220.333 173 222.260 L 173 224.187 174.989 224.707 L 176.978 225.227 176.430 226.114 L 175.882 227 173.941 227 L 172 227 172 228 L 172 229 175.094 229 L 178.187 229 178.710 227 L 179.233 225 192.617 225 L 206 225 206 222 L 206 219 203.468 219 L 200.936 219 200.109 221.234 L 199.283 223.467 198.574 221.234 L 197.865 219 195.482 219 L 193.099 219 191.992 220.750 L 190.884 222.500 190.359 221.250 L 189.833 220 188.917 220 L 188 220 188 221.500 L 188 223 186.500 223 L 185 223 185 221.500 L 185 220 183.500 220 L 182 220 182 221.500 L 182 223 180.617 223 L 179.233 223 178.710 221 L 178.187 219 176.260 219 L 174.333 219 173.667 219.667 M 220 222.378 L 220 224.755 218.416 226.070 L 216.832 227.384 215.166 226.340 L 213.500 225.296 213.180 223.148 L 212.861 221 211.930 221 L 211 221 211 223.800 L 211 226.600 212.200 227.800 L 213.400 229 216.643 229 L 219.887 229 221.232 227.079 L 222.577 225.158 226.039 224.829 L 229.500 224.500 229.820 222.250 L 230.139 220 228.643 220 L 227.147 220 226.689 221.750 L 226.232 223.500 226.116 221.750 L 226 220 225.360 220 L 224.720 220 223.392 221.750 L 222.064 223.500 222.032 221.750 L 222 220 221 220 L 220 220 220 222.378" stroke="none" fill="#b4b4b4" fill-rule="evenodd"/></svg>